<?xml version="1.0" encoding="UTF-8"?> <svg xmlns="http://www.w3.org/2000/svg" width="268" height="56" viewBox="0 0 268 56" fill="none"> <path d="M207.47 29.5199C206.821 29.9294 205.779 30.211 204.757 30.211C201.651 30.211 199.725 27.5235 199.725 22.7117C199.725 17.6183 201.887 15.0589 204.797 15.0589C205.917 15.0589 206.802 15.3915 207.431 15.7756L207.922 13.344C207.509 13.0625 206.448 12.5762 204.718 12.5762C200.551 12.5762 197.327 16.2106 197.327 22.8653C197.327 29.1104 200.138 32.7192 204.325 32.7192C205.956 32.7192 207.234 32.3097 207.863 31.9002L207.47 29.5199Z" fill="white"></path> <path d="M216.35 12.5508C212.497 12.5508 209.863 16.5947 209.863 22.763C209.863 28.6754 212.32 32.7194 216.153 32.7194C219.81 32.7194 222.621 29.2641 222.621 22.4559C222.621 16.8251 220.34 12.5508 216.35 12.5508ZM216.271 14.9823C218.964 14.9823 220.223 18.8215 220.223 22.5583C220.223 26.7302 218.866 30.2879 216.232 30.2879C213.637 30.2879 212.261 26.6535 212.261 22.6863C212.261 18.8471 213.5 14.9823 216.271 14.9823Z" fill="white"></path> <path d="M227.789 32.4373V23.8375H232.94V21.3804H227.789V15.3401H233.333V12.8574H225.509V32.4373H227.789Z" fill="white"></path> <path d="M238.713 32.4373V23.8375H243.863V21.3804H238.713V15.3401H244.257V12.8574H236.433V32.4373H238.713Z" fill="white"></path> <path d="M255.554 29.9547H249.637V23.4536H254.905V20.9965H249.637V15.3401H255.22V12.8574H247.357V32.4373H255.554V29.9547Z" fill="white"></path> <path d="M266.631 29.9547H260.714V23.4536H265.983V20.9965H260.714V15.3401H266.297V12.8574H258.434V32.4373H266.631V29.9547Z" fill="white"></path> <path d="M93.6354 12.2422C87.2916 12.2422 82.9545 18.7958 82.9545 28.7922C82.9545 38.3738 87.0003 44.9275 93.3117 44.9275C99.3319 44.9275 103.96 39.3278 103.96 28.2945C103.96 19.1692 100.206 12.2422 93.6354 12.2422ZM93.5058 16.1826C97.94 16.1826 100.011 22.4045 100.011 28.4604C100.011 35.2214 97.7782 40.987 93.4411 40.987C89.1687 40.987 86.903 35.097 86.903 28.6678C86.903 22.446 88.9421 16.1826 93.5058 16.1826Z" fill="white" stroke="#FFFDFD" stroke-width="1.13386" stroke-linecap="round" stroke-linejoin="round"></path> <path d="M119.817 29.2901C122.309 28.0872 124.251 25.3082 124.251 21.2432C124.251 18.6715 123.571 16.4732 122.276 15.0214C120.723 13.2378 118.457 12.4912 115.22 12.4912C112.987 12.4912 110.786 12.7815 109.2 13.1549V44.4713H112.922V31.0322H115.188C117.81 31.0322 119.007 32.6499 119.687 36.8807C120.302 40.7797 120.885 43.5588 121.241 44.4713H125.125C124.639 43.2685 124.024 39.9916 123.28 35.8437C122.697 32.484 121.661 30.2441 119.817 29.3731V29.2901ZM112.922 27.4236V16.5146C113.376 16.3487 114.282 16.2244 115.544 16.2244C118.231 16.2244 120.496 17.6347 120.496 21.741C120.496 25.1423 118.554 27.4236 115.447 27.4236L112.922 27.4236Z" fill="white" stroke="#FFFDFD" stroke-width="1.13386" stroke-linecap="round" stroke-linejoin="round"></path> <path d="M129.884 44.4705H133.638V12.7393H129.884V44.4705Z" fill="white" stroke="#FFFDFD" stroke-width="1.13386" stroke-linecap="round" stroke-linejoin="round"></path> <path d="M149.554 12.2422C143.21 12.2422 138.873 18.7958 138.873 28.7922C138.873 38.3738 142.919 44.9275 149.23 44.9275C155.25 44.9275 159.879 39.3278 159.879 28.2945C159.879 19.1692 156.124 12.2422 149.554 12.2422ZM149.424 16.1826C153.859 16.1826 155.93 22.4045 155.93 28.4604C155.93 35.2214 153.697 40.987 149.36 40.987C145.087 40.987 142.822 35.097 142.822 28.6678C142.822 22.446 144.861 16.1826 149.424 16.1826Z" fill="white" stroke="#FFFDFD" stroke-width="1.13386" stroke-linecap="round" stroke-linejoin="round"></path> <path d="M182.855 12.7393H179.392V24.4363C179.392 29.4967 179.489 33.5616 179.781 37.8754L179.683 37.917C178.615 34.5572 177.224 30.9071 175.67 27.4229L169.197 12.7394H165.119V44.4707H168.582V32.6077C168.582 27.0496 168.517 22.9431 168.323 18.9197L168.452 18.8782C169.585 22.4454 171.074 26.1784 172.563 29.6211L179.068 44.4706H182.855L182.855 12.7393Z" fill="white" stroke="#FFFDFD" stroke-width="1.13386" stroke-linecap="round" stroke-linejoin="round"></path> <path d="M33.1721 47.7114C36.1291 52.5119 43.7538 54.7029 50.1048 52.3337C56.4558 49.9645 61.5326 43.0356 63.132 36.8277C64.7315 30.6199 62.853 25.1338 59.3755 22.2568C55.8978 19.3799 50.821 19.1127 46.2645 20.52C41.708 21.9272 37.6725 25.0088 34.7993 30.2547C31.926 35.5007 30.2151 42.9108 33.1721 47.7114Z" stroke="white" stroke-width="4.15748"></path> <path d="M31.1883 40.6482C33.1548 43.2578 28.1189 46.2896 25.0532 26.8739C24.6105 21.8221 22.9727 16.1711 18.0234 10.9492" stroke="white" stroke-width="4.15748" stroke-linecap="round"></path> <path d="M53.7587 27.7949C53.5463 31.1372 50.2072 34.3705 48.7628 35.7615C47.2459 37.1604 42.0025 40.6663 41.7421 45.2905" stroke="white" stroke-width="4.15748" stroke-linecap="round"></path> <path d="M36.0174 52.2007C34.561 52.842 33.011 53.288 31.4267 53.5218C26.5084 54.2478 21.3975 52.8738 17.2269 50.2733C13.0565 47.6727 9.77119 43.9167 7.25652 39.8035C3.33662 33.392 1.17617 25.7153 2.77623 18.445C3.57628 14.8099 5.31883 11.3432 7.94197 8.60667C10.5652 5.87015 14.0822 3.89091 17.8965 3.21769C23.1695 2.28703 28.6828 3.88634 33.1629 6.70774C38.455 10.0405 42.5436 15.0924 44.594 20.8322" stroke="white" stroke-width="4.15748" stroke-linecap="round"></path> <path d="M196.243 42.7598H267.638" stroke="white" stroke-width="4.8"></path> </svg> 